<?xml version="1.0" encoding="UTF-8"?>
<svg version="1.1" xmlns="http://www.w3.org/2000/svg" width="315" height="315">
<path d="M0 0 C6.74056892 3.71073807 12.79963695 8.81010487 18.875 13.5 C20.71569444 14.90423772 22.55685097 16.30786991 24.3984375 17.7109375 C28.08779039 20.52767823 31.75576917 23.36964777 35.4140625 26.2265625 C37.10883331 27.52674805 38.80412347 28.82625701 40.5 30.125 C41.2822998 30.74697266 42.06459961 31.36894531 42.87060547 32.00976562 C43.60424316 32.56599609 44.33788086 33.12222656 45.09375 33.6953125 C45.72990234 34.19047363 46.36605469 34.68563477 47.02148438 35.19580078 C49.00168256 36.22078003 49.00168256 36.22078003 51.20239258 35.49853516 C55.19977682 33.35734095 58.91666829 30.87128462 62.66796875 28.328125 C63.50282303 27.76808777 64.33767731 27.20805054 65.1978302 26.63104248 C67.86402284 24.84173326 70.52602669 23.04631982 73.1875 21.25 C75.83161546 19.46872152 78.47665527 17.68885891 81.12361145 15.9118042 C82.76721691 14.80803058 84.40917418 13.70179691 86.04911804 12.59259033 C90.10060364 9.86850846 94.18953009 7.21294929 98.34106445 4.64355469 C99.1400264 4.14845398 99.93898834 3.65335327 100.76216125 3.14324951 C103.98822353 1.49514411 106.46001165 1.43360186 110 2 C112.55794241 2.82960294 113.60736527 3.40225757 115.07958984 5.64355469 C116.31317687 8.80179923 116.32794792 11.56595169 116.4140625 14.953125 C116.44311172 15.94345734 116.44311172 15.94345734 116.4727478 16.95379639 C116.53229349 19.05240153 116.57882722 21.15106228 116.625 23.25 C116.66320294 24.6771066 116.70225602 26.10419072 116.7421875 27.53125 C116.8379733 31.02062691 116.92209642 34.51017286 117 38 C117.93030029 37.3810083 118.86060059 36.7620166 119.8190918 36.12426758 C147.99984743 17.48347087 178.62883531 10.63902651 212.01318359 17.40820312 C228.55423231 21.08487597 243.97735636 29.27241038 257 40 C257.88429688 40.71285156 258.76859375 41.42570312 259.6796875 42.16015625 C276.10512296 56.3935852 289.45752151 77.34072954 293 99 C293.10074451 101.84209614 293.15212122 104.66001126 293.15390015 107.5020752 C293.1582824 108.35628193 293.16266465 109.21048867 293.1671797 110.09058046 C293.18053 112.9516653 293.18673794 115.81271937 293.19287109 118.67382812 C293.20077467 120.72554157 293.20904378 122.77725363 293.21765137 124.82896423 C293.24382931 131.56304606 293.25916905 138.29713399 293.2734375 145.03125 C293.27879783 147.34941105 293.28417534 149.66757206 293.28956985 151.98573303 C293.31118722 161.62456473 293.32992632 171.26339478 293.34119225 180.90224457 C293.35745044 194.72103475 293.39068677 208.53954465 293.44759309 222.35822916 C293.48624219 232.07382672 293.50581864 241.78934913 293.51111281 251.50502157 C293.51477149 257.3095512 293.52684897 263.1137816 293.55921555 268.91822815 C293.58920954 274.37496669 293.59563894 279.8312235 293.58383179 285.28802681 C293.58361037 287.29197037 293.59197183 289.29593575 293.60948563 291.29980278 C293.63207741 294.03309497 293.62392937 296.76462521 293.60800171 299.4979248 C293.6218838 300.29315819 293.63576588 301.08839158 293.65006864 301.90772295 C293.59343076 305.84486704 293.14882168 307.79955298 290.77788067 310.99295902 C287.79492064 313.14817148 286.56075705 313.62318146 282.94590759 313.61473083 C281.95194473 313.62449448 280.95798187 313.63425812 279.93389893 313.64431763 C278.85477234 313.62948334 277.77564575 313.61464905 276.66381836 313.59936523 C275.51859207 313.60330795 274.37336578 313.60725067 273.19343567 313.61131287 C269.40845996 313.61802499 265.62469036 313.58885493 261.83984375 313.55859375 C259.21098566 313.55434396 256.58212381 313.55201511 253.95326233 313.55152893 C248.44451572 313.54690433 242.93611527 313.52328533 237.42749023 313.48706055 C231.06141143 313.44530821 224.69564411 313.42774431 218.32943624 313.4244408 C212.2003395 313.42118657 206.07135255 313.40607655 199.94229317 313.3844471 C197.33593955 313.37555719 194.72957763 313.36883094 192.12321281 313.36428642 C188.48426225 313.35526072 184.84564711 313.33288429 181.20678711 313.30639648 C180.12563629 313.30573181 179.04448547 313.30506714 177.93057251 313.30438232 C176.44385796 313.28941963 176.44385796 313.28941963 174.92710876 313.27415466 C174.06711745 313.26950416 173.20712614 313.26485365 172.32107449 313.26006222 C169.78177024 312.97554869 168.16952426 312.32970615 166 311 C163.30680946 307.4206629 163.55769343 303.05851998 163.375 298.75 C163.31699219 297.63238281 163.31699219 297.63238281 163.2578125 296.4921875 C163.16394892 294.6618476 163.08090282 292.83095857 163 291 C159.45741812 292.69390444 156.12786299 294.68827644 152.75 296.6875 C147.66855205 299.61340564 142.52657063 302.32382012 137.1875 304.75 C136.02605469 305.28109375 134.86460937 305.8121875 133.66796875 306.359375 C121.62693981 310.95078466 109.50669297 312.66953168 96.69775391 312.52148438 C94.49920526 312.49999223 92.30392148 312.52146501 90.10546875 312.546875 C64.71569694 312.59571912 41.67218089 302.76667439 22 287 C21.3090625 286.45214844 20.618125 285.90429688 19.90625 285.33984375 C16.29132344 282.3670423 13.23311646 279.13014714 10.26171875 275.515625 C8.93080838 273.87011447 8.93080838 273.87011447 7 272 C6.34 271.34 5.68 270.68 5 270 C5 269.01 5 268.02 5 267 C4.34 267 3.68 267 3 267 C-7.72397492 246.03103664 -13.46537106 229.09496454 -13.37231445 205.4140625 C-13.37474566 203.24146857 -13.37846817 201.06887576 -13.38337708 198.89628601 C-13.39274004 193.02702011 -13.38340175 187.1579223 -13.37004495 181.28866959 C-13.35869228 175.139305 -13.36284061 168.98994823 -13.36479187 162.84057617 C-13.36567311 152.52471177 -13.35462566 142.2089133 -13.33618164 131.89306641 C-13.31497177 119.96181452 -13.31151468 108.03065887 -13.3177436 96.09939194 C-13.32343261 84.61440509 -13.31779995 73.12945217 -13.30657005 61.64447021 C-13.30192251 56.75778578 -13.30105083 51.87112208 -13.3031559 46.98443604 C-13.30503596 41.23879348 -13.29695666 35.49324929 -13.2810955 29.74762917 C-13.27684516 27.63685322 -13.27600712 25.52606732 -13.27878571 23.41528893 C-13.28199704 20.54017825 -13.27295244 17.66536345 -13.26069641 14.7902832 C-13.26447573 13.95022043 -13.26825506 13.11015766 -13.27214891 12.24463844 C-13.21816214 5.11334304 -13.21816214 5.11334304 -11 2 C-7.52410577 -0.57473647 -4.19302296 -0.54990465 0 0 Z " fill="#DC2217" transform="translate(17,1)"/>
<path d="M0 0 C2.85731118 1.39117022 5.27059804 2.86118543 7.765625 4.8359375 C8.48347168 5.40038574 9.20131836 5.96483398 9.94091797 6.54638672 C11.08391357 7.45155029 11.08391357 7.45155029 12.25 8.375 C13.86133952 9.6362343 15.47333265 10.89663395 17.0859375 12.15625 C17.9015918 12.79433594 18.71724609 13.43242188 19.55761719 14.08984375 C20.36360352 14.72019531 21.16958984 15.35054687 22 16 C22.7724707 16.60457031 23.54494141 17.20914063 24.34082031 17.83203125 C26.51116607 19.52330717 28.69142446 21.20085742 30.875 22.875 C31.5340332 23.39239746 32.19306641 23.90979492 32.87207031 24.44287109 C36.27334147 27.03334315 37.59406126 28 42 28 C44.15834319 26.93361893 44.15834319 26.93361893 46.31640625 25.39453125 C47.15453857 24.82879395 47.9926709 24.26305664 48.85620117 23.68017578 C49.74927979 23.06384277 50.6423584 22.44750977 51.5625 21.8125 C52.48329346 21.18843262 53.40408691 20.56436523 54.3527832 19.92138672 C59.09906514 16.69827735 63.81844027 13.43630405 68.5390625 10.17578125 C69.40587646 9.57854248 70.27269043 8.98130371 71.16577148 8.3659668 C72.82517139 7.22033985 74.48104701 6.06958839 76.13305664 4.91333008 C76.87676514 4.39794678 77.62047363 3.88256348 78.38671875 3.3515625 C79.03858154 2.89604004 79.69044434 2.44051758 80.36206055 1.97119141 C82 1 82 1 84 1 C84 41.26 84 81.52 84 123 C64.86 123 45.72 123 26 123 C26 123.66 26 124.32 26 125 C26.55042969 125.22429687 27.10085937 125.44859375 27.66796875 125.6796875 C30.72583148 127.41093976 32.84821826 129.62237725 35.3125 132.125 C36.21613281 133.03507813 37.11976562 133.94515625 38.05078125 134.8828125 C40.12304795 137.03101342 42.07823937 139.2489514 44.01269531 141.52148438 C48.21281576 146.33372577 52.71706863 150.81606491 57.25912285 155.30372238 C58.77894125 156.80590382 60.2949771 158.31181334 61.81007385 159.8187561 C66.11183541 164.09625496 70.41948148 168.36779386 74.73120117 172.63525391 C77.38240431 175.25975384 80.02877893 177.88904191 82.67219734 180.52138138 C83.67788178 181.52085078 84.68546056 182.51841774 85.69494438 183.51404953 C87.09725558 184.89725105 88.49301699 186.28708352 89.88842773 187.67724609 C90.68449936 188.46586029 91.48057098 189.25447449 92.30076599 190.06698608 C94 192 94 192 94 194 C101.50184616 187.67162698 108.64102713 180.95125915 115.01757812 173.48022461 C119.55088797 168.28734742 124.42264383 163.45247623 129.30859375 158.59375 C130.2853001 157.61891355 131.26178234 156.64385251 132.23805237 155.6685791 C134.78227461 153.12813699 137.32948736 150.59071491 139.87738037 148.05395508 C142.48715879 145.45448876 145.09406241 142.85214265 147.70117188 140.25 C152.7977183 135.16357783 157.89895377 130.08192527 163 125 C148.81 124.67 134.62 124.34 120 124 C124.14970481 118.46706026 128.03650857 113.72963745 132.9375 109 C137.28726078 104.731861 141.48881776 100.44285339 145.4296875 95.7890625 C147.82342093 93.06187367 150.43090861 90.56026826 153.015625 88.015625 C155.62109697 85.36912197 158.03594356 82.58007018 160.45703125 79.765625 C162.21796344 77.75058361 164.06973331 75.85305602 166 74 C169.41698601 75.47506309 171.63122751 77.38816245 174.24609375 80.01904297 C175.07375244 80.84685272 175.90141113 81.67466248 176.75415039 82.52755737 C178.08240845 83.87129929 178.08240845 83.87129929 179.4375 85.2421875 C180.3545874 86.1621048 181.2716748 87.08202209 182.21655273 88.02981567 C184.65252282 90.4734077 187.08243306 92.92293978 189.5111084 95.3737793 C191.9751617 97.85823674 194.4448262 100.33710187 196.9140625 102.81640625 C201.26434085 107.18580336 205.60966357 111.56008836 209.95141602 115.93795776 C211.36660585 117.36244474 212.80647625 118.76268239 214.26538086 120.1423645 C216 122 216 122 216 124 C200.82 124 185.64 124 170 124 C170.02320313 128.20363281 170.04640625 132.40726563 170.0703125 136.73828125 C170.08320046 140.11829257 170.09403684 143.49829681 170.10350037 146.87831879 C170.11400297 150.43073059 170.12800635 153.98304486 170.15087891 157.53540039 C170.17703461 161.62386955 170.18652192 165.71223758 170.1953125 169.80078125 C170.20563507 171.05643387 170.21595764 172.31208649 170.22659302 173.60578918 C170.2280003 184.7887587 168.89651445 194.36817197 163.9375 204.4375 C163.54119385 205.25516846 163.1448877 206.07283691 162.73657227 206.9152832 C159.22731714 213.94002905 155.15912797 220.05073532 150 226 C149.37738281 226.721875 148.75476563 227.44375 148.11328125 228.1875 C133.31953804 244.06673799 111.7352824 253.36183864 90.234375 254.23828125 C65.64435021 254.81747384 43.31321089 247.97117406 25 231 C10.86014584 217.22801196 0.22972936 197.86059019 -0.33282888 177.81334066 C-0.38295595 173.7906627 -0.36709036 169.76986678 -0.34057617 165.74707031 C-0.33972842 163.93251561 -0.34020793 162.11795987 -0.34190369 160.30340576 C-0.34275928 155.41161861 -0.32520467 150.52005521 -0.30418181 145.62831974 C-0.28534178 140.50342527 -0.28365882 135.37852484 -0.28010559 130.25360107 C-0.27080656 120.56414296 -0.24622193 110.8747872 -0.21605712 101.18537402 C-0.18244622 90.14783531 -0.16601032 79.11029153 -0.15097082 68.07271433 C-0.11967036 45.38175295 -0.06695177 22.69088223 0 0 Z " fill="#01AD17" transform="translate(26,37)"/>
<path d="M0 0 C6.74056892 3.71073807 12.79963695 8.81010487 18.875 13.5 C20.71569444 14.90423772 22.55685097 16.30786991 24.3984375 17.7109375 C28.08779039 20.52767823 31.75576917 23.36964777 35.4140625 26.2265625 C37.10883331 27.52674805 38.80412347 28.82625701 40.5 30.125 C41.2822998 30.74697266 42.06459961 31.36894531 42.87060547 32.00976562 C43.60424316 32.56599609 44.33788086 33.12222656 45.09375 33.6953125 C45.72990234 34.19047363 46.36605469 34.68563477 47.02148438 35.19580078 C49.00168256 36.22078003 49.00168256 36.22078003 51.20239258 35.49853516 C55.19977682 33.35734095 58.91666829 30.87128462 62.66796875 28.328125 C63.50282303 27.76808777 64.33767731 27.20805054 65.1978302 26.63104248 C67.86402284 24.84173326 70.52602669 23.04631982 73.1875 21.25 C75.83161546 19.46872152 78.47665527 17.68885891 81.12361145 15.9118042 C82.76721691 14.80803058 84.40917418 13.70179691 86.04911804 12.59259033 C90.10060364 9.86850846 94.18953009 7.21294929 98.34106445 4.64355469 C99.1400264 4.14845398 99.93898834 3.65335327 100.76216125 3.14324951 C103.98822353 1.49514411 106.46001165 1.43360186 110 2 C112.55794241 2.82960294 113.60736527 3.40225757 115.07958984 5.64355469 C116.31317687 8.80179923 116.32794792 11.56595169 116.4140625 14.953125 C116.44311172 15.94345734 116.44311172 15.94345734 116.4727478 16.95379639 C116.53229349 19.05240153 116.57882722 21.15106228 116.625 23.25 C116.66320294 24.6771066 116.70225602 26.10419072 116.7421875 27.53125 C116.8379733 31.02062691 116.92209642 34.51017286 117 38 C117.93030029 37.3810083 118.86060059 36.7620166 119.8190918 36.12426758 C147.99984743 17.48347087 178.62883531 10.63902651 212.01318359 17.40820312 C228.55423231 21.08487597 243.97735636 29.27241038 257 40 C257.88429688 40.71285156 258.76859375 41.42570312 259.6796875 42.16015625 C276.10512296 56.3935852 289.45752151 77.34072954 293 99 C293.10074451 101.84209614 293.15212122 104.66001126 293.15390015 107.5020752 C293.1582824 108.35628193 293.16266465 109.21048867 293.1671797 110.09058046 C293.18053 112.9516653 293.18673794 115.81271937 293.19287109 118.67382812 C293.20077467 120.72554157 293.20904378 122.77725363 293.21765137 124.82896423 C293.24382931 131.56304606 293.25916905 138.29713399 293.2734375 145.03125 C293.27879783 147.34941105 293.28417534 149.66757206 293.28956985 151.98573303 C293.31118722 161.62456473 293.32992632 171.26339478 293.34119225 180.90224457 C293.35745044 194.72103475 293.39068677 208.53954465 293.44759309 222.35822916 C293.48624219 232.07382672 293.50581864 241.78934913 293.51111281 251.50502157 C293.51477149 257.3095512 293.52684897 263.1137816 293.55921555 268.91822815 C293.58920954 274.37496669 293.59563894 279.8312235 293.58383179 285.28802681 C293.58361037 287.29197037 293.59197183 289.29593575 293.60948563 291.29980278 C293.63207741 294.03309497 293.62392937 296.76462521 293.60800171 299.4979248 C293.6218838 300.29315819 293.63576588 301.08839158 293.65006864 301.90772295 C293.59343076 305.84486704 293.14882168 307.79955298 290.77788067 310.99295902 C287.79492064 313.14817148 286.56075705 313.62318146 282.94590759 313.61473083 C281.95194473 313.62449448 280.95798187 313.63425812 279.93389893 313.64431763 C278.85477234 313.62948334 277.77564575 313.61464905 276.66381836 313.59936523 C275.51859207 313.60330795 274.37336578 313.60725067 273.19343567 313.61131287 C269.40845996 313.61802499 265.62469036 313.58885493 261.83984375 313.55859375 C259.21098566 313.55434396 256.58212381 313.55201511 253.95326233 313.55152893 C248.44451572 313.54690433 242.93611527 313.52328533 237.42749023 313.48706055 C231.06141143 313.44530821 224.69564411 313.42774431 218.32943624 313.4244408 C212.2003395 313.42118657 206.07135255 313.40607655 199.94229317 313.3844471 C197.33593955 313.37555719 194.72957763 313.36883094 192.12321281 313.36428642 C188.48426225 313.35526072 184.84564711 313.33288429 181.20678711 313.30639648 C180.12563629 313.30573181 179.04448547 313.30506714 177.93057251 313.30438232 C176.44385796 313.28941963 176.44385796 313.28941963 174.92710876 313.27415466 C174.06711745 313.26950416 173.20712614 313.26485365 172.32107449 313.26006222 C169.78177024 312.97554869 168.16952426 312.32970615 166 311 C163.30680946 307.4206629 163.55769343 303.05851998 163.375 298.75 C163.31699219 297.63238281 163.31699219 297.63238281 163.2578125 296.4921875 C163.16394892 294.6618476 163.08090282 292.83095857 163 291 C159.45741812 292.69390444 156.12786299 294.68827644 152.75 296.6875 C147.66855205 299.61340564 142.52657063 302.32382012 137.1875 304.75 C136.02605469 305.28109375 134.86460937 305.8121875 133.66796875 306.359375 C121.62693981 310.95078466 109.50669297 312.66953168 96.69775391 312.52148438 C94.49920526 312.49999223 92.30392148 312.52146501 90.10546875 312.546875 C64.71569694 312.59571912 41.67218089 302.76667439 22 287 C21.3090625 286.45214844 20.618125 285.90429688 19.90625 285.33984375 C16.29132344 282.3670423 13.23311646 279.13014714 10.26171875 275.515625 C8.93080838 273.87011447 8.93080838 273.87011447 7 272 C6.34 271.34 5.68 270.68 5 270 C5 269.01 5 268.02 5 267 C4.34 267 3.68 267 3 267 C-7.72397492 246.03103664 -13.46537106 229.09496454 -13.37231445 205.4140625 C-13.37474566 203.24146857 -13.37846817 201.06887576 -13.38337708 198.89628601 C-13.39274004 193.02702011 -13.38340175 187.1579223 -13.37004495 181.28866959 C-13.35869228 175.139305 -13.36284061 168.98994823 -13.36479187 162.84057617 C-13.36567311 152.52471177 -13.35462566 142.2089133 -13.33618164 131.89306641 C-13.31497177 119.96181452 -13.31151468 108.03065887 -13.3177436 96.09939194 C-13.32343261 84.61440509 -13.31779995 73.12945217 -13.30657005 61.64447021 C-13.30192251 56.75778578 -13.30105083 51.87112208 -13.3031559 46.98443604 C-13.30503596 41.23879348 -13.29695666 35.49324929 -13.2810955 29.74762917 C-13.27684516 27.63685322 -13.27600712 25.52606732 -13.27878571 23.41528893 C-13.28199704 20.54017825 -13.27295244 17.66536345 -13.26069641 14.7902832 C-13.26447573 13.95022043 -13.26825506 13.11015766 -13.27214891 12.24463844 C-13.21816214 5.11334304 -13.21816214 5.11334304 -11 2 C-7.52410577 -0.57473647 -4.19302296 -0.54990465 0 0 Z M1 20 C0.95322671 45.60873633 0.91798504 71.21746624 0.89637566 96.82623672 C0.88607423 108.7175057 0.87203557 120.60874809 0.84912109 132.5 C0.82915252 142.86747117 0.81627533 153.23492308 0.81182301 163.60241294 C0.80922151 169.08911508 0.80313046 174.57576215 0.78853989 180.06244659 C0.77490118 185.23339212 0.77079003 190.40426021 0.77378464 195.57522202 C0.77323728 197.46655321 0.7692975 199.35788716 0.76158905 201.24920273 C0.66598549 225.92992144 6.06384287 245.57533087 22 265 C22.763125 266.010625 23.52625 267.02125 24.3125 268.0625 C24.869375 268.701875 25.42625 269.34125 26 270 C26.66 270 27.32 270 28 270 C28.33 270.99 28.66 271.98 29 273 C48.22035493 290.50980554 72.43636006 298.63748128 98.28125 298.18359375 C119.2689326 297.14743715 137.48051229 289.9016933 154 277 C154.66644531 276.48824219 155.33289063 275.97648438 156.01953125 275.44921875 C157.39455005 274.35757619 158.70725542 273.18792745 160 272 C160 271.34 160 270.68 160 270 C160.99 269.67 161.98 269.34 163 269 C165.03834313 266.45750377 166.89625201 263.81830802 168.76953125 261.15234375 C171 259 171 259 174.19921875 258.62890625 C177 259 177 259 178 260 C178.33 272.54 178.66 285.08 179 298 C212 298 245 298 279 298 C279.08746029 264.79883879 279.08746029 264.79883879 279.14648438 231.59765625 C279.16425771 218.05058367 279.1851069 204.50356724 279.22631836 190.95654297 C279.2563233 181.08857634 279.27559924 171.22065543 279.28226548 161.35264444 C279.28615901 156.13294212 279.29523899 150.91337054 279.31719017 145.69371033 C279.33773102 140.76895733 279.34379866 135.84438749 279.33932304 130.91959572 C279.34014044 129.12346714 279.34600031 127.32733167 279.35761642 125.53124046 C279.44691092 110.99708538 278.67074149 96.60795521 272 83.375 C271.61336182 82.58504639 271.22672363 81.79509277 270.82836914 80.98120117 C266.84753722 73.1703683 261.80605692 66.53181403 256 60 C255.29875 59.21109375 254.5975 58.4221875 253.875 57.609375 C238.04843607 40.88937601 213.7277901 30.64852012 190.87890625 29.796875 C175.34184032 29.51575026 161.27663571 31.59749269 147 38 C146.12988281 38.38027344 145.25976562 38.76054688 144.36328125 39.15234375 C132.43532633 44.71372932 119.40162706 53.96564373 112.125 65.0625 C110 68 110 68 107.375 69.125 C105 69 105 69 103.37858582 67.76591492 C101.65985371 65.56428581 101.60733616 64.3920642 101.56762695 61.62036133 C101.54783279 60.73967484 101.52803864 59.85898834 101.50764465 58.95161438 C101.50125473 58.00465195 101.49486481 57.05768951 101.48828125 56.08203125 C101.47033005 55.10965012 101.45237885 54.13726898 101.43388367 53.13542175 C101.37967533 50.02782536 101.34585102 46.92038348 101.3125 43.8125 C101.27933624 41.70635866 101.24484747 39.60023773 101.20898438 37.49414062 C101.12394269 32.32953839 101.05718159 27.16498281 101 22 C99.56785265 22.78634289 98.13683861 23.57475004 96.70629883 24.36401367 C95.90928055 24.80283371 95.11226227 25.24165375 94.29109192 25.69377136 C91.29716392 27.40071051 88.49742139 29.31895006 85.6875 31.3125 C84.56440378 32.10241868 83.44069241 32.89146338 82.31640625 33.6796875 C81.76098145 34.06995117 81.20555664 34.46021484 80.63330078 34.86230469 C77.19165236 37.25962631 73.69033567 39.56661578 70.18359375 41.8671875 C67.8058603 43.46012304 65.47968601 45.08416222 63.16015625 46.7578125 C62.50063965 47.22324463 61.84112305 47.68867676 61.16162109 48.16821289 C59.87600462 49.07622126 58.60084392 49.99927761 57.33837891 50.93920898 C54.26088605 53.08558658 52.25867934 53.9919522 48.484375 54.109375 C44.13161384 52.72351831 41.47037876 50.65213752 38.0625 47.6875 C36.74669044 46.58886771 35.42891582 45.49258545 34.109375 44.3984375 C33.43455078 43.83479492 32.75972656 43.27115234 32.06445312 42.69042969 C28.7268776 39.95753317 25.27543971 37.383483 21.8125 34.8125 C20.81863281 34.07277954 20.81863281 34.07277954 19.8046875 33.31811523 C18.50111922 32.3483287 17.19709271 31.37915776 15.89257812 30.41064453 C14.04157278 29.03098652 12.19899433 27.64088709 10.359375 26.24609375 C9.80016357 25.82287842 9.24095215 25.39966309 8.66479492 24.96362305 C7.16247689 23.8257253 5.66127643 22.6863525 4.16015625 21.546875 C2.30730978 19.90296478 2.30730978 19.90296478 1 20 Z " fill="#000000" transform="translate(17,1)"/>
<path d="M0 0 C1.41253427 0.93102646 2.82362591 1.86424182 4.23413086 2.79833984 C5.0200914 3.31778168 5.80605194 3.83722351 6.61582947 4.37240601 C10.39818979 6.95449771 13.97348655 9.7833463 17.5625 12.625 C23.64160889 17.3961891 29.75212419 22.1172142 35.9375 26.75 C36.93922241 27.50144287 36.93922241 27.50144287 37.96118164 28.26806641 C43.05485995 32.54847153 43.05485995 32.54847153 49.20703125 33.94140625 C53.87427483 32.78300697 56.86169274 30.75885725 60.6875 27.9375 C62.11018681 26.92379075 63.53336725 25.91077392 64.95703125 24.8984375 C65.64877441 24.40053711 66.34051758 23.90263672 67.05322266 23.38964844 C69.62268519 21.55551491 72.24164945 19.8033761 74.875 18.0625 C78.49293621 15.66555471 82.10473741 13.26021317 85.70703125 10.83984375 C86.52896973 10.28868896 87.3509082 9.73753418 88.19775391 9.16967773 C89.84049395 8.06802063 91.48212126 6.9647022 93.12255859 5.85961914 C93.86973145 5.35938232 94.6169043 4.85914551 95.38671875 4.34375 C96.05920654 3.89193359 96.73169434 3.44011719 97.42456055 2.97460938 C99 2 99 2 100 2 C100.01458252 3.31718018 100.02916504 4.63436035 100.04418945 5.99145508 C100.10210713 10.87259238 100.17934036 15.75326518 100.26245117 20.6340332 C100.29573128 22.74756336 100.32375353 24.86118306 100.34643555 26.97485352 C100.37992472 30.01096806 100.43223764 33.04625975 100.48828125 36.08203125 C100.49467117 37.02899368 100.5010611 37.97595612 100.50764465 38.95161438 C100.52743881 39.83230087 100.54723297 40.71298737 100.56762695 41.62036133 C100.57873001 42.39535477 100.58983307 43.17034821 100.60127258 43.96882629 C101.10312254 46.52532077 101.93712845 47.44724876 104 49 C106.52782662 49.1087758 106.52782662 49.1087758 109 48 C110.98149263 46.02776863 110.98149263 46.02776863 112.6875 43.5 C126.98499647 24.78279327 148.75824061 13.81634759 171.81640625 10.44140625 C199.07946125 7.24287545 224.73207955 15.08660339 246.40478516 31.734375 C257.30748604 40.38445174 265.33353463 51.97493128 271.4375 64.375 C271.75533447 64.99697266 272.07316895 65.61894531 272.40063477 66.25976562 C278.48932794 79.34415278 278.43184787 94.05352455 278.34057617 108.16601562 C278.3397277 110.0304208 278.34020933 111.89482697 278.34190369 113.75923157 C278.34275648 118.76854514 278.32524817 123.77763858 278.30418181 128.78690147 C278.28529417 134.04123156 278.28365512 139.29556796 278.28010559 144.54992676 C278.27082037 154.47653766 278.24625477 164.4030482 278.21605712 174.32961512 C278.17609707 187.75981364 278.16002974 201.19004005 278.14255047 214.62028313 C278.11443076 235.74693044 278.05463785 256.87336607 278 278 C245 278 212 278 178 278 C177.67 265.46 177.34 252.92 177 240 C175.9037701 238.70482568 175.9037701 238.70482568 173.234375 238.59375 C169.81831158 238.69385391 169.81831158 238.69385391 167.515625 241.40625 C166.39414062 242.93765625 166.39414062 242.93765625 165.25 244.5 C163.86889206 246.36026784 162.46014443 248.20110206 161 250 C160.34 250 159.68 250 159 250 C158.67 250.99 158.34 251.98 158 253 C139.29665071 270.70275859 115.23143269 278.40083598 89.890625 278.1484375 C67.57984906 277.29722316 47.87730377 269.49840762 31 255 C30.25105469 254.47019531 29.50210938 253.94039062 28.73046875 253.39453125 C28.15941406 252.93433594 27.58835937 252.47414063 27 252 C27 251.34 27 250.68 27 250 C26.01 249.67 25.02 249.34 24 249 C8.69046815 232.82514678 -0.20696557 211.76134926 -0.12025452 189.52111816 C-0.12110894 188.7057394 -0.12196337 187.89036063 -0.12284368 187.05027342 C-0.12448083 184.33883126 -0.11900622 181.62745201 -0.11352539 178.91601562 C-0.11324311 176.96412152 -0.11340205 175.0122273 -0.1139679 173.06033325 C-0.11425428 167.77584221 -0.1083832 162.49137396 -0.10139394 157.2068882 C-0.09513397 151.67890158 -0.09455451 146.15091442 -0.09336853 140.6229248 C-0.09026301 130.16130946 -0.08206012 119.69970459 -0.07201904 109.23809385 C-0.06083371 97.32519807 -0.05534135 85.41230178 -0.05032361 73.49940205 C-0.03987686 48.99959556 -0.0222925 24.49979837 0 0 Z M8 16 C7.92982479 39.78334984 7.87697014 63.5666841 7.84456348 87.35011673 C7.82911455 98.3939282 7.8080628 109.43767522 7.77368164 120.48144531 C7.74371883 130.11058877 7.72441066 139.73968553 7.71773452 149.36887431 C7.71383391 154.46437153 7.70470819 159.55973522 7.68280983 164.65518951 C7.66233587 169.45845646 7.65618813 174.26153578 7.66067696 179.06484222 C7.65985661 180.82072471 7.65395632 182.57661395 7.64238358 184.3324585 C7.49051791 208.57823177 15.5514065 228.93316241 32.46484375 246.5703125 C50.67655165 264.05997031 73.34432755 270.58443531 98.09375 270.203125 C115.84897163 269.63617478 133.23115264 263.3532601 147 252 C147.83789062 251.31164062 148.67578125 250.62328125 149.5390625 249.9140625 C163.76726809 237.66319061 176.30331414 219.20856041 178 200 C178.13550372 195.39678525 178.11627806 190.79626232 178.09765625 186.19140625 C178.09578833 184.85619663 178.0943662 183.52098631 178.09336853 182.18577576 C178.08957277 178.69237332 178.079768 175.19901327 178.06866455 171.70562744 C178.05838681 168.1325336 178.05380233 164.55943263 178.04882812 160.98632812 C178.03867503 153.99084813 178.01909595 146.99548413 178 140 C193.18 140 208.36 140 224 140 C224.22800695 137.78469059 224.22800695 137.78469059 222.1184082 135.9934082 C221.07939125 134.99513434 220.03983559 133.99742112 219 133 C217.49225516 131.4978216 215.98762287 129.99251638 214.48510742 128.48510742 C213.62459274 127.62459274 212.76407806 126.76407806 211.87748718 125.87748718 C199.91832479 113.91832479 187.95916239 101.95916239 176 90 C168.81643634 93.4207446 163.89257633 100.05227482 158.78125 106 C156.9257479 108.08337078 154.98776899 110.04281207 153 112 C149.77320205 115.17725019 146.80051503 118.49267697 143.85546875 121.9296875 C141.12114837 124.9806134 138.17298257 127.80052748 135.2109375 130.62890625 C132.52297044 133.5115847 130.29091935 136.79271291 128 140 C142.19 140.33 156.38 140.66 171 141 C167.47183594 144.5165625 163.94367188 148.033125 160.30859375 151.65625 C158.06156945 153.89815892 155.81469746 156.14021651 153.56835938 158.3828125 C150.01048698 161.93472969 146.45209336 165.48611266 142.89038086 169.03417969 C140.0157683 171.89784918 137.1436751 174.76402408 134.27324104 177.63188171 C133.18302032 178.72026862 132.09192658 179.80778183 130.99990654 180.8943634 C125.62628768 186.2423061 120.3105542 191.59412352 115.39620972 197.37550354 C113.27062054 199.84863637 110.99704747 202.13513619 108.6875 204.4375 C107.42486328 205.70400391 107.42486328 205.70400391 106.13671875 206.99609375 C104 209 104 209 102 210 C101.76705734 209.44141296 101.53411469 208.88282593 101.29411316 208.30731201 C99.667233 205.40670003 97.65735502 203.42574526 95.29418945 201.08300781 C94.81746292 200.60759552 94.34073639 200.13218323 93.8495636 199.6423645 C92.27535252 198.07463309 90.69428349 196.51400487 89.11328125 194.953125 C88.01138653 193.85750755 86.91000995 192.76136878 85.80912781 191.66473389 C82.90783214 188.77673628 80.00103282 185.89434797 77.09259033 183.0135498 C72.45465632 178.41871129 67.82328259 173.81728801 63.195364 169.2123642 C61.58768724 167.61479887 59.97657756 166.02075921 58.36506653 164.42706299 C53.02048905 159.12610737 47.87799058 153.73397018 43 148 C41.74751558 146.64941571 40.4823551 145.31001733 39.1875 144 C38.62417969 143.4225 38.06085937 142.845 37.48046875 142.25 C36.06824171 140.78495716 36.06824171 140.78495716 34 141 C34 140.34 34 139.68 34 139 C53.14 139 72.28 139 92 139 C92 98.74 92 58.48 92 17 C87.48945184 18.80421926 83.97472089 20.92064632 80.0625 23.6875 C78.65800382 24.66731451 77.25302672 25.64643991 75.84765625 26.625 C74.70127686 27.42550781 74.70127686 27.42550781 73.53173828 28.2421875 C68.71015105 31.5898662 63.85260638 34.88502632 59 38.1875 C57.08329823 39.49343807 55.16662869 40.79942344 53.25 42.10546875 C51.83336381 43.07035725 50.41670956 44.03521923 49 45 C45.84338074 43.54579178 43.22613277 41.77145048 40.47265625 39.65625 C39.60366699 38.99117432 38.73467773 38.32609863 37.83935547 37.64086914 C36.92299316 36.93438232 36.00663086 36.22789551 35.0625 35.5 C34.1255127 34.78255615 33.18852539 34.0651123 32.22314453 33.32592773 C28.08027687 30.1512031 23.94724041 26.96440392 19.83203125 23.75390625 C19.23704834 23.29113281 18.64206543 22.82835937 18.02905273 22.3515625 C16.48225986 21.14609145 14.94016852 19.93459442 13.3984375 18.72265625 C11.03883305 16.84817579 11.03883305 16.84817579 8 16 Z M145 27 C144.03707031 27.49113281 143.07414062 27.98226562 142.08203125 28.48828125 C124.76348868 37.87569307 112.02659875 53.17939978 104 71 C103.73119522 71.58852249 103.46239044 72.17704498 103.18544006 72.78340149 C100.24594694 80.24674981 100.62060033 87.87133709 100.70703125 95.75390625 C100.71263672 97.2656156 100.71690232 98.77733046 100.71989441 100.28904724 C100.73126845 104.23958777 100.76066999 108.18978967 100.79400635 112.14019775 C100.83030937 116.8951747 100.8439039 121.65026581 100.86136627 126.4053421 C100.89031314 133.60379585 100.94785102 140.80150876 101 148 C85.49 148 69.98 148 54 148 C59.07327135 153.92227131 59.07327135 153.92227131 64.38134766 159.57421875 C65.18883453 160.39776855 65.99632141 161.22131836 66.82827759 162.06982422 C70.46451236 165.75090522 74.10266945 169.4300094 77.75 173.10009766 C79.67731418 175.04085688 81.59705468 176.98867541 83.51074219 178.94287109 C86.27697167 181.76761154 89.06329556 184.57200135 91.8515625 187.375 C92.70891998 188.25502686 93.56627747 189.13505371 94.44961548 190.04174805 C95.65138931 191.23924683 95.65138931 191.23924683 96.87744141 192.4609375 C97.57882233 193.17040527 98.28020325 193.87987305 99.00283813 194.61083984 C100.87700724 196.21615982 100.87700724 196.21615982 103.05836487 195.89820862 C105.21489177 194.90059016 106.51584186 193.85231559 108.1887207 192.16772461 C108.78646805 191.57297836 109.38421539 190.97823212 110.00007629 190.36546326 C110.95330025 189.3937191 110.95330025 189.3937191 111.92578125 188.40234375 C112.59159714 187.73465469 113.25741302 187.06696564 113.94340515 186.37904358 C115.35307592 184.96264934 116.75914364 183.54266141 118.16186523 182.11938477 C120.28717568 179.96319229 122.42270886 177.81759292 124.56054688 175.67382812 C125.93291091 174.29228152 127.30467453 172.91013818 128.67578125 171.52734375 C129.30519119 170.89368393 129.93460114 170.26002411 130.58308411 169.60716248 C134.37148573 165.75881849 137.98693534 161.80071182 141.50994873 157.70776367 C143.23379658 155.73204324 145.04984249 153.88167107 146.9375 152.0625 C147.97643691 151.06009714 149.00368079 150.04477242 150 149 C150 148.67 150 148.34 150 148 C136.14 147.67 122.28 147.34 108 147 C118.0625 137 118.0625 137 121.19165039 133.8984375 C122.02688232 133.06570312 122.86211426 132.23296875 123.72265625 131.375 C124.98734741 130.11816406 124.98734741 130.11816406 126.27758789 128.8359375 C128.34710752 126.68011829 130.30731487 124.5082902 132.25390625 122.24609375 C136.36334455 117.5117938 140.76961564 113.10464422 145.21484375 108.6875 C146.07058487 107.83317383 146.92632599 106.97884766 147.80799866 106.09863281 C150.51547381 103.39671138 153.22642254 100.69830641 155.9375 98 C157.78473675 96.15778423 159.63174427 94.31533857 161.47851562 92.47265625 C165.98303003 87.97910939 170.49039405 83.4884368 175 79 C176.10382774 79.93783238 177.20645621 80.8770764 178.30859375 81.81689453 C179.22983032 82.6012236 179.22983032 82.6012236 180.16967773 83.40139771 C182.89441535 85.78118179 185.45313343 88.30770402 188 90.875 C188.72316406 91.59236328 188.72316406 91.59236328 189.4609375 92.32421875 C192.16557079 95.03600715 194.73283916 97.82374021 197.2265625 100.73095703 C200.80066786 104.82949804 204.56864475 108.68116258 208.4375 112.5 C209.12126709 113.17998047 209.80503418 113.85996094 210.50952148 114.56054688 C212.67057055 116.70950926 214.83484726 118.85517279 217 121 C219.85716017 123.83033837 222.71083454 126.66412673 225.5625 129.5 C226.52530884 130.45036133 226.52530884 130.45036133 227.50756836 131.41992188 C231.36702069 135.25873003 234.96984116 139.2177868 238.43725586 143.41601562 C240.01833105 145.25791068 240.01833105 145.25791068 243 146 C243 146.66 243 147.32 243 148 C224.19 148 205.38 148 186 148 C186 188.59 186 229.18 186 271 C213.72 271 241.44 271 270 271 C270.08742197 238.20997175 270.08742197 238.20997175 270.14648438 205.41992188 C270.16427632 192.0457819 270.18517795 178.67169868 270.22631836 165.29760742 C270.25626807 155.5567722 270.27558624 145.81598309 270.28226548 136.0751031 C270.2861683 130.91983475 270.29530822 125.76469827 270.31719017 120.60947227 C270.33764335 115.75121702 270.34381601 110.89314721 270.33932304 106.03485298 C270.34014431 104.25758733 270.34605709 102.4803151 270.35761642 100.70308685 C270.43549121 88.10567782 269.18273521 77.31930066 263.3125 66 C262.96364746 65.31921387 262.61479492 64.63842773 262.25537109 63.93701172 C251.54102325 43.54270525 234.36645646 28.96707561 212.453125 21.84765625 C189.83000633 15.14185842 166.07392941 15.85423289 145 27 Z " fill="#FBFBF9" transform="translate(18,21)"/>
<path d="M0 0 C6.74056892 3.71073807 12.79963695 8.81010487 18.875 13.5 C20.71569444 14.90423772 22.55685097 16.30786991 24.3984375 17.7109375 C28.08779039 20.52767823 31.75576917 23.36964777 35.4140625 26.2265625 C37.10883331 27.52674805 38.80412347 28.82625701 40.5 30.125 C41.2822998 30.74697266 42.06459961 31.36894531 42.87060547 32.00976562 C43.60424316 32.56599609 44.33788086 33.12222656 45.09375 33.6953125 C45.72990234 34.19047363 46.36605469 34.68563477 47.02148438 35.19580078 C49.00168256 36.22078003 49.00168256 36.22078003 51.20239258 35.49853516 C55.19977682 33.35734095 58.91666829 30.87128462 62.66796875 28.328125 C63.50282303 27.76808777 64.33767731 27.20805054 65.1978302 26.63104248 C67.86402284 24.84173326 70.52602669 23.04631982 73.1875 21.25 C75.83161546 19.46872152 78.47665527 17.68885891 81.12361145 15.9118042 C82.76721691 14.80803058 84.40917418 13.70179691 86.04911804 12.59259033 C90.10060364 9.86850846 94.18953009 7.21294929 98.34106445 4.64355469 C99.1400264 4.14845398 99.93898834 3.65335327 100.76216125 3.14324951 C103.98822353 1.49514411 106.46001165 1.43360186 110 2 C112.55794241 2.82960294 113.60736527 3.40225757 115.07958984 5.64355469 C116.31317687 8.80179923 116.32794792 11.56595169 116.4140625 14.953125 C116.44311172 15.94345734 116.44311172 15.94345734 116.4727478 16.95379639 C116.53229349 19.05240153 116.57882722 21.15106228 116.625 23.25 C116.66320294 24.6771066 116.70225602 26.10419072 116.7421875 27.53125 C116.8379733 31.02062691 116.92209642 34.51017286 117 38 C117.93030029 37.3810083 118.86060059 36.7620166 119.8190918 36.12426758 C147.99984743 17.48347087 178.62883531 10.63902651 212.01318359 17.40820312 C228.55423231 21.08487597 243.97735636 29.27241038 257 40 C257.88429688 40.71285156 258.76859375 41.42570312 259.6796875 42.16015625 C276.10512296 56.3935852 289.45752151 77.34072954 293 99 C293.10074451 101.84209614 293.15212122 104.66001126 293.15390015 107.5020752 C293.1582824 108.35628193 293.16266465 109.21048867 293.1671797 110.09058046 C293.18053 112.9516653 293.18673794 115.81271937 293.19287109 118.67382812 C293.20077467 120.72554157 293.20904378 122.77725363 293.21765137 124.82896423 C293.24382931 131.56304606 293.25916905 138.29713399 293.2734375 145.03125 C293.27879783 147.34941105 293.28417534 149.66757206 293.28956985 151.98573303 C293.31118722 161.62456473 293.32992632 171.26339478 293.34119225 180.90224457 C293.35745044 194.72103475 293.39068677 208.53954465 293.44759309 222.35822916 C293.48624219 232.07382672 293.50581864 241.78934913 293.51111281 251.50502157 C293.51477149 257.3095512 293.52684897 263.1137816 293.55921555 268.91822815 C293.58920954 274.37496669 293.59563894 279.8312235 293.58383179 285.28802681 C293.58361037 287.29197037 293.59197183 289.29593575 293.60948563 291.29980278 C293.63207741 294.03309497 293.62392937 296.76462521 293.60800171 299.4979248 C293.6218838 300.29315819 293.63576588 301.08839158 293.65006864 301.90772295 C293.59343076 305.84486704 293.14882168 307.79955298 290.77788067 310.99295902 C287.79492064 313.14817148 286.56075705 313.62318146 282.94590759 313.61473083 C281.95194473 313.62449448 280.95798187 313.63425812 279.93389893 313.64431763 C278.85477234 313.62948334 277.77564575 313.61464905 276.66381836 313.59936523 C275.51859207 313.60330795 274.37336578 313.60725067 273.19343567 313.61131287 C269.40845996 313.61802499 265.62469036 313.58885493 261.83984375 313.55859375 C259.21098566 313.55434396 256.58212381 313.55201511 253.95326233 313.55152893 C248.44451572 313.54690433 242.93611527 313.52328533 237.42749023 313.48706055 C231.06141143 313.44530821 224.69564411 313.42774431 218.32943624 313.4244408 C212.2003395 313.42118657 206.07135255 313.40607655 199.94229317 313.3844471 C197.33593955 313.37555719 194.72957763 313.36883094 192.12321281 313.36428642 C188.48426225 313.35526072 184.84564711 313.33288429 181.20678711 313.30639648 C180.12563629 313.30573181 179.04448547 313.30506714 177.93057251 313.30438232 C176.44385796 313.28941963 176.44385796 313.28941963 174.92710876 313.27415466 C174.06711745 313.26950416 173.20712614 313.26485365 172.32107449 313.26006222 C169.78177024 312.97554869 168.16952426 312.32970615 166 311 C163.30680946 307.4206629 163.55769343 303.05851998 163.375 298.75 C163.31699219 297.63238281 163.31699219 297.63238281 163.2578125 296.4921875 C163.16394892 294.6618476 163.08090282 292.83095857 163 291 C159.45741812 292.69390444 156.12786299 294.68827644 152.75 296.6875 C147.66855205 299.61340564 142.52657063 302.32382012 137.1875 304.75 C136.02605469 305.28109375 134.86460937 305.8121875 133.66796875 306.359375 C121.62693981 310.95078466 109.50669297 312.66953168 96.69775391 312.52148438 C94.49920526 312.49999223 92.30392148 312.52146501 90.10546875 312.546875 C64.71569694 312.59571912 41.67218089 302.76667439 22 287 C21.3090625 286.45214844 20.618125 285.90429688 19.90625 285.33984375 C16.29132344 282.3670423 13.23311646 279.13014714 10.26171875 275.515625 C8.93080838 273.87011447 8.93080838 273.87011447 7 272 C6.34 271.34 5.68 270.68 5 270 C5 269.01 5 268.02 5 267 C4.34 267 3.68 267 3 267 C-7.72397492 246.03103664 -13.46537106 229.09496454 -13.37231445 205.4140625 C-13.37474566 203.24146857 -13.37846817 201.06887576 -13.38337708 198.89628601 C-13.39274004 193.02702011 -13.38340175 187.1579223 -13.37004495 181.28866959 C-13.35869228 175.139305 -13.36284061 168.98994823 -13.36479187 162.84057617 C-13.36567311 152.52471177 -13.35462566 142.2089133 -13.33618164 131.89306641 C-13.31497177 119.96181452 -13.31151468 108.03065887 -13.3177436 96.09939194 C-13.32343261 84.61440509 -13.31779995 73.12945217 -13.30657005 61.64447021 C-13.30192251 56.75778578 -13.30105083 51.87112208 -13.3031559 46.98443604 C-13.30503596 41.23879348 -13.29695666 35.49324929 -13.2810955 29.74762917 C-13.27684516 27.63685322 -13.27600712 25.52606732 -13.27878571 23.41528893 C-13.28199704 20.54017825 -13.27295244 17.66536345 -13.26069641 14.7902832 C-13.26447573 13.95022043 -13.26825506 13.11015766 -13.27214891 12.24463844 C-13.21816214 5.11334304 -13.21816214 5.11334304 -11 2 C-7.52410577 -0.57473647 -4.19302296 -0.54990465 0 0 Z M-6.6637302 6.26773667 C-8.96202296 9.24711125 -8.41399464 12.88417843 -8.38768005 16.49798584 C-8.39306559 17.37609649 -8.39845113 18.25420714 -8.40399987 19.1589272 C-8.41835403 22.11357932 -8.4111571 25.06778809 -8.40405273 28.02246094 C-8.40975286 30.13647321 -8.41671572 32.25048239 -8.42485046 34.36448669 C-8.44284857 40.11930899 -8.44159954 45.87397934 -8.43590808 51.62882137 C-8.43282202 56.43667936 -8.43890306 61.24450792 -8.44494683 66.05236173 C-8.45901583 77.4065146 -8.45741452 88.76059231 -8.44604492 100.11474609 C-8.43459545 111.80650744 -8.44858053 123.49803855 -8.4754414 135.18976951 C-8.49765473 145.23670683 -8.50422209 155.2835722 -8.49836498 165.33053231 C-8.49500354 171.32648739 -8.49735486 177.32229535 -8.51461601 183.31822968 C-8.53016987 188.96865389 -8.52603631 194.61874041 -8.50731087 200.26915169 C-8.50364648 202.33337658 -8.50667001 204.39762693 -8.51719666 206.46182823 C-8.59085307 222.11187287 -6.81658816 235.45091249 0.1875 249.6875 C0.76624878 250.88584473 0.76624878 250.88584473 1.35668945 252.10839844 C4.82616459 259.06842266 8.99303561 265.03568104 14 271 C14.49886719 271.64839844 14.99773438 272.29679687 15.51171875 272.96484375 C30.27196233 291.61603979 55.97951465 303.66531379 79 307 C110.74805423 308.7253084 138.39532615 303.46189198 163 282 C164.68071086 280.34749688 166.35093751 278.68408683 168 277 C168.02187378 278.24873901 168.02187378 278.24873901 168.04418945 279.52270508 C168.1052863 282.61489653 168.17944556 285.70642082 168.26245117 288.7980957 C168.31201319 290.7929063 168.34651133 292.78807257 168.38085938 294.78320312 C168.41630859 296.03681641 168.45175781 297.29042969 168.48828125 298.58203125 C168.51446533 299.73936768 168.54064941 300.8967041 168.56762695 302.08911133 C169.05339742 305.35949037 169.43183481 306.04830401 172 308 C174.19677187 308.44743957 174.19677187 308.44743957 176.67518616 308.3742218 C177.63563339 308.38123611 178.59608063 308.38825043 179.58563232 308.39547729 C180.6376886 308.38783356 181.68974487 308.38018982 182.77368164 308.37231445 C183.88281418 308.37596512 184.99194672 308.37961578 186.13468933 308.38337708 C189.80999951 308.39149966 193.4848712 308.37785871 197.16015625 308.36328125 C199.70698547 308.36276289 202.2538151 308.36327966 204.80064392 308.36479187 C210.14133152 308.36470207 215.48186438 308.35459353 220.82250977 308.33618164 C227.00112583 308.31500311 233.17955607 308.3115064 239.35820109 308.3177436 C245.29825871 308.32343339 251.23826022 308.31769272 257.1783123 308.30657005 C259.70817234 308.3027104 262.23803798 308.30157299 264.76790047 308.3031559 C268.29728111 308.3035251 271.82637513 308.29094728 275.35571289 308.2746582 C276.4097934 308.27713562 277.4638739 308.27961304 278.54989624 308.28216553 C279.50752365 308.27508072 280.46515106 308.26799591 281.45179749 308.26069641 C282.28673265 308.25864354 283.1216678 308.25659067 283.98190403 308.25447559 C286.22798259 308.18074265 286.22798259 308.18074265 288 306 C288.19983425 303.33340873 288.27363914 300.77032217 288.26069641 298.1023407 C288.26452196 297.27675952 288.26834751 296.45117835 288.27228898 295.60057956 C288.28265571 292.81788453 288.27861976 290.03539445 288.2746582 287.25268555 C288.27900299 285.26365466 288.28418534 283.27462545 288.29014587 281.28559875 C288.30358096 275.867643 288.30410892 270.44975681 288.30158257 265.03178763 C288.30051464 260.50712419 288.30539235 255.98247493 288.310188 251.45781451 C288.32130147 240.77354206 288.32171206 230.08930474 288.31567383 219.4050293 C288.30964885 208.39890676 288.32190321 197.39291255 288.3432439 186.38681191 C288.36089844 176.93271054 288.36685468 167.47864985 288.36360615 158.02453262 C288.36179728 152.38076249 288.36438877 146.73708363 288.37832069 141.09332848 C288.39095492 135.77538781 288.38890218 130.45764541 288.37590981 125.13970757 C288.37355558 123.19558392 288.37623694 121.25144609 288.38453293 119.30733871 C288.44122845 104.97858736 287.31363912 92.51563456 280.875 79.4375 C280.48248047 78.62740479 280.08996094 77.81730957 279.68554688 76.98266602 C276.18998168 69.98526367 272.08228035 63.96769505 267 58 C265.92105469 56.69675781 265.92105469 56.69675781 264.8203125 55.3671875 C247.63248377 35.36569286 222.80561672 23.33775977 196.75 20.25 C195.16825134 20.14063795 193.58444541 20.05849477 192 20 C191.02160156 19.96003906 190.04320312 19.92007812 189.03515625 19.87890625 C162.9984228 19.34239174 137.55402578 27.47756132 118 45 C116.00826901 46.67670874 114.00293691 48.33665372 112 50 C111.98541748 48.8039917 111.97083496 47.6079834 111.95581055 46.37573242 C111.89787414 41.94183325 111.82064126 37.50844442 111.73754883 33.07495117 C111.7042775 31.15543902 111.67625246 29.23582852 111.65356445 27.31616211 C111.62005879 24.55800428 111.56774597 21.80074957 111.51171875 19.04296875 C111.50532883 18.18350143 111.4989389 17.32403412 111.49235535 16.43852234 C111.47256119 15.63791885 111.45276703 14.83731537 111.43237305 14.01245117 C111.42126999 13.3085173 111.41016693 12.60458344 111.39872742 11.87931824 C110.88123749 9.44023776 109.9464062 8.5148117 108 7 C102.80610658 6.92930272 98.55437759 10.6665995 94.4375 13.46875 C93.60976074 14.02308716 92.78202148 14.57742432 91.92919922 15.14855957 C89.28099266 16.92485943 86.64053597 18.71232292 84 20.5 C82.25438925 21.67259435 80.50829999 22.84447669 78.76171875 24.015625 C77.04935337 25.16647952 75.3371123 26.31751901 73.625 27.46875 C72.7901709 28.02884766 71.9553418 28.58894531 71.09521484 29.16601562 C67.35447227 31.68699914 63.6484489 34.23122479 60.02734375 36.921875 C59.43421387 37.35632935 58.84108398 37.79078369 58.22998047 38.23840332 C56.68541025 39.37806095 55.15642174 40.53875496 53.62890625 41.70117188 C51 43 51 43 48.42382812 42.41650391 C46.03025823 41.01768315 43.84752576 39.56557335 41.65625 37.8671875 C40.8319751 37.23329102 40.0077002 36.59939453 39.15844727 35.94628906 C37.84251587 34.92100098 37.84251587 34.92100098 36.5 33.875 C34.62377504 32.42958738 32.74747055 30.984278 30.87109375 29.5390625 C29.90671387 28.79301758 28.94233398 28.04697266 27.94873047 27.27832031 C23.16725723 23.58394142 18.36559624 19.91619314 13.5625 16.25 C12.69367187 15.58339355 11.82484375 14.91678711 10.9296875 14.22998047 C2.69468158 6.59449349 2.69468158 6.59449349 -6.6637302 6.26773667 Z " fill="#FEFEFE" transform="translate(17,1)"/>
<path d="M0 0 C2 1 2 1 2 1 Z " fill="#000000" transform="translate(83,314)"/>
<path d="M0 0 C2 1 2 1 2 1 Z " fill="#000000" transform="translate(79,313)"/>
<path d="M0 0 C2 1 2 1 2 1 Z " fill="#4A4A4A" transform="translate(148,310)"/>
<path d="" fill="#000000" transform="translate(0,0)"/>
<path d="" fill="#000000" transform="translate(0,0)"/>
<path d="" fill="#000000" transform="translate(0,0)"/>
<path d="" fill="#949494" transform="translate(0,0)"/>
<path d="" fill="#000000" transform="translate(0,0)"/>
<path d="" fill="#000000" transform="translate(0,0)"/>
<path d="" fill="#000000" transform="translate(0,0)"/>
<path d="" fill="#000000" transform="translate(0,0)"/>
<path d="" fill="#E7E7E7" transform="translate(0,0)"/>
<path d="" fill="#000000" transform="translate(0,0)"/>
<path d="" fill="#000000" transform="translate(0,0)"/>
<path d="" fill="#000000" transform="translate(0,0)"/>
<path d="" fill="#000000" transform="translate(0,0)"/>
<path d="" fill="#7C7C7C" transform="translate(0,0)"/>
<path d="" fill="#000000" transform="translate(0,0)"/>
<path d="" fill="#000000" transform="translate(0,0)"/>
<path d="" fill="#000000" transform="translate(0,0)"/>
<path d="" fill="#000000" transform="translate(0,0)"/>
<path d="" fill="#000000" transform="translate(0,0)"/>
<path d="" fill="#000000" transform="translate(0,0)"/>
<path d="" fill="#E7E7E7" transform="translate(0,0)"/>
<path d="" fill="#000000" transform="translate(0,0)"/>
<path d="" fill="#000000" transform="translate(0,0)"/>
<path d="" fill="#000000" transform="translate(0,0)"/>
<path d="" fill="#BCBCBC" transform="translate(0,0)"/>
<path d="" fill="#000000" transform="translate(0,0)"/>
<path d="" fill="#000000" transform="translate(0,0)"/>
<path d="" fill="#000000" transform="translate(0,0)"/>
<path d="" fill="#000000" transform="translate(0,0)"/>
<path d="" fill="#000000" transform="translate(0,0)"/>
<path d="" fill="#000000" transform="translate(0,0)"/>
<path d="" fill="#000000" transform="translate(0,0)"/>
<path d="" fill="#E7E7E7" transform="translate(0,0)"/>
<path d="" fill="#949494" transform="translate(0,0)"/>
<path d="" fill="#000000" transform="translate(0,0)"/>
<path d="" fill="#000000" transform="translate(0,0)"/>
<path d="" fill="#000000" transform="translate(0,0)"/>
<path d="" fill="#000000" transform="translate(0,0)"/>
<path d="" fill="#000000" transform="translate(0,0)"/>
<path d="" fill="#000000" transform="translate(0,0)"/>
<path d="" fill="#DADADA" transform="translate(0,0)"/>
<path d="" fill="#E7E7E7" transform="translate(0,0)"/>
<path d="" fill="#BCBCBC" transform="translate(0,0)"/>
<path d="" fill="#000000" transform="translate(0,0)"/>
<path d="" fill="#000000" transform="translate(0,0)"/>
<path d="" fill="#000000" transform="translate(0,0)"/>
<path d="" fill="#000000" transform="translate(0,0)"/>
<path d="" fill="#000000" transform="translate(0,0)"/>
<path d="" fill="#000000" transform="translate(0,0)"/>
</svg>
